<?xml version="1.0" encoding="utf-8"?>
<!-- Generator: Adobe Illustrator 19.0.0, SVG Export Plug-In . SVG Version: 6.00 Build 0)  -->
<svg version="1.1" id="Layer_1" xmlns="http://www.w3.org/2000/svg" xmlns:xlink="http://www.w3.org/1999/xlink" x="0px" y="0px"
	 viewBox="0 0 105.6 187.6" style="enable-background:new 0 0 105.6 187.6;" xml:space="preserve">
<style type="text/css">
	.st0{fill:none;stroke:#000000;stroke-width:7;stroke-miterlimit:10;}
</style>
<g id="XMLID_3_">
	<path id="XMLID_1_" class="st0" d="M32,50c-2.8-4.5-9.8-2.1-13.7,1.5c-9,8.1-14.5,20-14.8,32.1c-0.1,4.8,0.6,9.8,3.1,13.9
		c2.6,4.1,7.3,7.1,12.1,6.6c5.2-0.5,9.3-4.9,11.2-9.8s1.8-10.2,1.7-15.5c-0.1-8.5-0.3-17-0.4-25.6c7.5,21.7,7.4,45.6,2.7,68.1
		c-4.7,22.5-13.6,43.9-23.5,64.7"/>
	<path id="XMLID_2_" class="st0" d="M31.3,15.5c-0.2-2.5-1.1-4.8-2.4-6.9c-6.3,25.3,4.1,51.7,4.6,77.8c0-9.8,1-19.5,3-29.1
		c0.5-2.4,1.2-4.9,3-6.4c1.4-1.3,3.4-1.7,5.3-1.9c7.7-0.5,14.6,4.4,20.1,9.8c5.4,5.4,10.2,11.8,16.8,15.6S97.8,79,103,73.2"/>
</g>
</svg>
